<svg id="visual" viewBox="0 0 900 600" width="900" height="600" xmlns="http://www.w3.org/2000/svg" xmlns:xlink="http://www.w3.org/1999/xlink" version="1.1"><rect x="0" y="0" width="900" height="600" fill="#0f172a"></rect><defs><linearGradient id="grad1_0" x1="33.3%" y1="0%" x2="100%" y2="100%"><stop offset="20%" stop-color="#0f172a" stop-opacity="1"></stop><stop offset="80%" stop-color="#0f172a" stop-opacity="1"></stop></linearGradient></defs><defs><linearGradient id="grad2_0" x1="0%" y1="0%" x2="66.7%" y2="100%"><stop offset="20%" stop-color="#0f172a" stop-opacity="1"></stop><stop offset="80%" stop-color="#0f172a" stop-opacity="1"></stop></linearGradient></defs><g transform="translate(900, 0)"><path d="M0 270.4C-36.1 261.1 -72.3 251.9 -95.7 231C-119.1 210.1 -129.7 177.6 -157 157C-184.3 136.4 -228.2 127.7 -249.8 103.5C-271.5 79.3 -271 39.7 -270.4 0L0 0Z" fill="#8b5cf6"></path></g><g transform="translate(0, 600)"><path d="M0 -270.4C29 -245.9 58 -221.3 85 -205.1C111.9 -188.9 136.9 -181 166.9 -166.9C196.8 -152.7 231.7 -132.3 249.8 -103.5C267.9 -74.6 269.2 -37.3 270.4 0L0 0Z" fill="#8b5cf6"></path></g></svg>