<svg id="visual" viewBox="0 0 900 600" width="900" height="600" xmlns="http://www.w3.org/2000/svg" xmlns:xlink="http://www.w3.org/1999/xlink" version="1.1"><rect x="0" y="0" width="900" height="600" fill="#001220"></rect><path d="M0 357L21.5 367.5C43 378 86 399 128.8 411.3C171.7 423.7 214.3 427.3 257.2 421C300 414.7 343 398.3 385.8 387C428.7 375.7 471.3 369.3 514.2 378.3C557 387.3 600 411.7 642.8 410C685.7 408.3 728.3 380.7 771.2 374.8C814 369 857 385 878.5 393L900 401L900 601L878.5 601C857 601 814 601 771.2 601C728.3 601 685.7 601 642.8 601C600 601 557 601 514.2 601C471.3 601 428.7 601 385.8 601C343 601 300 601 257.2 601C214.3 601 171.7 601 128.8 601C86 601 43 601 21.5 601L0 601Z" fill="#fa7268"></path><path d="M0 445L21.5 445C43 445 86 445 128.8 439.5C171.7 434 214.3 423 257.2 427C300 431 343 450 385.8 453.8C428.7 457.7 471.3 446.3 514.2 441.7C557 437 600 439 642.8 435.2C685.7 431.3 728.3 421.7 771.2 415.7C814 409.7 857 407.3 878.5 406.2L900 405L900 601L878.5 601C857 601 814 601 771.2 601C728.3 601 685.7 601 642.8 601C600 601 557 601 514.2 601C471.3 601 428.7 601 385.8 601C343 601 300 601 257.2 601C214.3 601 171.7 601 128.8 601C86 601 43 601 21.5 601L0 601Z" fill="#ef5f67"></path><path d="M0 440L21.5 444.2C43 448.3 86 456.7 128.8 465.8C171.7 475 214.3 485 257.2 486.8C300 488.7 343 482.3 385.8 472.8C428.7 463.3 471.3 450.7 514.2 448.8C557 447 600 456 642.8 456.8C685.7 457.7 728.3 450.3 771.2 451.8C814 453.3 857 463.7 878.5 468.8L900 474L900 601L878.5 601C857 601 814 601 771.2 601C728.3 601 685.7 601 642.8 601C600 601 557 601 514.2 601C471.3 601 428.7 601 385.8 601C343 601 300 601 257.2 601C214.3 601 171.7 601 128.8 601C86 601 43 601 21.5 601L0 601Z" fill="#e34c67"></path><path d="M0 516L21.5 514.2C43 512.3 86 508.7 128.8 508.2C171.7 507.7 214.3 510.3 257.2 509.2C300 508 343 503 385.8 501C428.7 499 471.3 500 514.2 506C557 512 600 523 642.8 526C685.7 529 728.3 524 771.2 522.2C814 520.3 857 521.7 878.5 522.3L900 523L900 601L878.5 601C857 601 814 601 771.2 601C728.3 601 685.7 601 642.8 601C600 601 557 601 514.2 601C471.3 601 428.7 601 385.8 601C343 601 300 601 257.2 601C214.3 601 171.7 601 128.8 601C86 601 43 601 21.5 601L0 601Z" fill="#d53867"></path><path d="M0 566L21.5 563.5C43 561 86 556 128.8 552C171.7 548 214.3 545 257.2 544.7C300 544.3 343 546.7 385.8 548.5C428.7 550.3 471.3 551.7 514.2 553.3C557 555 600 557 642.8 556.8C685.7 556.7 728.3 554.3 771.2 553.5C814 552.7 857 553.3 878.5 553.7L900 554L900 601L878.5 601C857 601 814 601 771.2 601C728.3 601 685.7 601 642.8 601C600 601 557 601 514.2 601C471.3 601 428.7 601 385.8 601C343 601 300 601 257.2 601C214.3 601 171.7 601 128.8 601C86 601 43 601 21.5 601L0 601Z" fill="#c62368"></path></svg>