<svg id="visual" viewBox="0 0 900 600" width="900" height="600" xmlns="http://www.w3.org/2000/svg" xmlns:xlink="http://www.w3.org/1999/xlink" version="1.1"><rect x="0" y="0" width="900" height="600" fill="#8737ff"></rect><path d="M0 204L21.5 200.2C43 196.3 86 188.7 128.8 195.8C171.7 203 214.3 225 257.2 235.8C300 246.7 343 246.3 385.8 239.5C428.7 232.7 471.3 219.3 514.2 208.7C557 198 600 190 642.8 196.5C685.7 203 728.3 224 771.2 228.8C814 233.7 857 222.3 878.5 216.7L900 211L900 0L878.5 0C857 0 814 0 771.2 0C728.3 0 685.7 0 642.8 0C600 0 557 0 514.2 0C471.3 0 428.7 0 385.8 0C343 0 300 0 257.2 0C214.3 0 171.7 0 128.8 0C86 0 43 0 21.5 0L0 0Z" fill="#6c28d2"></path><path d="M0 180L21.5 179.8C43 179.7 86 179.3 128.8 173.2C171.7 167 214.3 155 257.2 152.2C300 149.3 343 155.7 385.8 156.7C428.7 157.7 471.3 153.3 514.2 150.5C557 147.7 600 146.3 642.8 151.5C685.7 156.7 728.3 168.3 771.2 178.2C814 188 857 196 878.5 200L900 204L900 0L878.5 0C857 0 814 0 771.2 0C728.3 0 685.7 0 642.8 0C600 0 557 0 514.2 0C471.3 0 428.7 0 385.8 0C343 0 300 0 257.2 0C214.3 0 171.7 0 128.8 0C86 0 43 0 21.5 0L0 0Z" fill="#5722a9"></path><path d="M0 109L21.5 108C43 107 86 105 128.8 111C171.7 117 214.3 131 257.2 138.7C300 146.3 343 147.7 385.8 141.7C428.7 135.7 471.3 122.3 514.2 117.5C557 112.7 600 116.3 642.8 119C685.7 121.7 728.3 123.3 771.2 124C814 124.7 857 124.3 878.5 124.2L900 124L900 0L878.5 0C857 0 814 0 771.2 0C728.3 0 685.7 0 642.8 0C600 0 557 0 514.2 0C471.3 0 428.7 0 385.8 0C343 0 300 0 257.2 0C214.3 0 171.7 0 128.8 0C86 0 43 0 21.5 0L0 0Z" fill="#431c82"></path><path d="M0 108L21.5 108.8C43 109.7 86 111.3 128.8 112.3C171.7 113.3 214.3 113.7 257.2 112.5C300 111.3 343 108.7 385.8 106.5C428.7 104.3 471.3 102.7 514.2 95.8C557 89 600 77 642.8 75.8C685.7 74.7 728.3 84.3 771.2 89.5C814 94.7 857 95.3 878.5 95.7L900 96L900 0L878.5 0C857 0 814 0 771.2 0C728.3 0 685.7 0 642.8 0C600 0 557 0 514.2 0C471.3 0 428.7 0 385.8 0C343 0 300 0 257.2 0C214.3 0 171.7 0 128.8 0C86 0 43 0 21.5 0L0 0Z" fill="#30155d"></path><path d="M0 55L21.5 52.2C43 49.3 86 43.7 128.8 39.5C171.7 35.3 214.3 32.7 257.2 36.5C300 40.3 343 50.7 385.8 55.7C428.7 60.7 471.3 60.3 514.2 58.2C557 56 600 52 642.8 49.5C685.7 47 728.3 46 771.2 48.5C814 51 857 57 878.5 60L900 63L900 0L878.5 0C857 0 814 0 771.2 0C728.3 0 685.7 0 642.8 0C600 0 557 0 514.2 0C471.3 0 428.7 0 385.8 0C343 0 300 0 257.2 0C214.3 0 171.7 0 128.8 0C86 0 43 0 21.5 0L0 0Z" fill="#1f0e3a"></path></svg>