<svg id="visual" viewBox="0 0 900 600" width="900" height="600" xmlns="http://www.w3.org/2000/svg" xmlns:xlink="http://www.w3.org/1999/xlink" version="1.1"><rect x="0" y="0" width="900" height="600" fill="#0f172a"></rect><defs><linearGradient id="grad1_0" x1="33.3%" y1="0%" x2="100%" y2="100%"><stop offset="20%" stop-color="#0f172a" stop-opacity="1"></stop><stop offset="80%" stop-color="#0f172a" stop-opacity="1"></stop></linearGradient></defs><defs><linearGradient id="grad2_0" x1="0%" y1="0%" x2="66.7%" y2="100%"><stop offset="20%" stop-color="#0f172a" stop-opacity="1"></stop><stop offset="80%" stop-color="#0f172a" stop-opacity="1"></stop></linearGradient></defs><g transform="translate(900, 0)"><path d="M0 270.4C-35.6 266.6 -71.1 262.8 -103.5 249.8C-135.8 236.9 -165 214.7 -188.8 188.8C-212.6 162.9 -231.2 133.1 -243.9 101C-256.6 68.9 -263.5 34.5 -270.4 0L0 0Z" fill="#8b5cf6"></path></g><g transform="translate(0, 600)"><path d="M0 -270.4C35.5 -267.2 71 -263.9 103.5 -249.8C136 -235.7 165.5 -210.8 181.7 -181.7C197.9 -152.6 200.9 -119.4 213.4 -88.4C226 -57.4 248.2 -28.7 270.4 0L0 0Z" fill="#8b5cf6"></path></g></svg>