<svg id="visual" viewBox="0 0 900 600" width="900" height="600" xmlns="http://www.w3.org/2000/svg" xmlns:xlink="http://www.w3.org/1999/xlink" version="1.1"><rect x="0" y="0" width="900" height="600" fill="#0f172a"></rect><defs><linearGradient id="grad1_0" x1="33.3%" y1="100%" x2="100%" y2="0%"><stop offset="20%" stop-color="#0f172a" stop-opacity="1"></stop><stop offset="80%" stop-color="#0f172a" stop-opacity="1"></stop></linearGradient></defs><defs><linearGradient id="grad2_0" x1="0%" y1="100%" x2="66.7%" y2="0%"><stop offset="20%" stop-color="#0f172a" stop-opacity="1"></stop><stop offset="80%" stop-color="#0f172a" stop-opacity="1"></stop></linearGradient></defs><g transform="translate(900, 600)"><path d="M-486.7 0C-453.5 -43.6 -420.2 -87.2 -401.3 -130.4C-382.5 -173.6 -378.2 -216.3 -364.1 -264.5C-349.9 -312.8 -325.8 -366.6 -286.1 -393.8C-246.4 -421 -190.9 -421.7 -140.6 -432.7C-90.3 -443.8 -45.2 -465.3 0 -486.7L0 0Z" fill="#1252a5"></path></g><g transform="translate(0, 0)"><path d="M486.7 0C479.2 53 471.6 106 443.2 144C414.8 182 365.7 205 339.8 246.9C313.9 288.8 311.3 349.6 283.3 389.9C255.3 430.3 201.9 450.2 150.4 462.9C99 475.6 49.5 481.2 0 486.7L0 0Z" fill="#1252a5"></path></g></svg>