<svg id="visual" viewBox="0 0 900 600" width="900" height="600" xmlns="http://www.w3.org/2000/svg" xmlns:xlink="http://www.w3.org/1999/xlink" version="1.1"><path d="M0 374L25 384.7C50 395.3 100 416.7 150 427.2C200 437.7 250 437.3 300 426.5C350 415.7 400 394.3 450 382C500 369.7 550 366.3 600 370C650 373.7 700 384.3 750 385.2C800 386 850 377 875 372.5L900 368L900 601L875 601C850 601 800 601 750 601C700 601 650 601 600 601C550 601 500 601 450 601C400 601 350 601 300 601C250 601 200 601 150 601C100 601 50 601 25 601L0 601Z" fill="#1252a5"></path><path d="M0 430L25 430.5C50 431 100 432 150 434.7C200 437.3 250 441.7 300 447.7C350 453.7 400 461.3 450 464.8C500 468.3 550 467.7 600 459.2C650 450.7 700 434.3 750 434.7C800 435 850 452 875 460.5L900 469L900 601L875 601C850 601 800 601 750 601C700 601 650 601 600 601C550 601 500 601 450 601C400 601 350 601 300 601C250 601 200 601 150 601C100 601 50 601 25 601L0 601Z" fill="#154284"></path><path d="M0 466L25 467.8C50 469.7 100 473.3 150 480.7C200 488 250 499 300 495.2C350 491.3 400 472.7 450 467.5C500 462.3 550 470.7 600 476.7C650 482.7 700 486.3 750 481.2C800 476 850 462 875 455L900 448L900 601L875 601C850 601 800 601 750 601C700 601 650 601 600 601C550 601 500 601 450 601C400 601 350 601 300 601C250 601 200 601 150 601C100 601 50 601 25 601L0 601Z" fill="#153364"></path><path d="M0 502L25 499.2C50 496.3 100 490.7 150 492C200 493.3 250 501.7 300 511.2C350 520.7 400 531.3 450 535.7C500 540 550 538 600 535.2C650 532.3 700 528.7 750 521.3C800 514 850 503 875 497.5L900 492L900 601L875 601C850 601 800 601 750 601C700 601 650 601 600 601C550 601 500 601 450 601C400 601 350 601 300 601C250 601 200 601 150 601C100 601 50 601 25 601L0 601Z" fill="#132546"></path><path d="M0 562L25 555C50 548 100 534 150 536.5C200 539 250 558 300 559.8C350 561.7 400 546.3 450 537.7C500 529 550 527 600 533.8C650 540.7 700 556.3 750 564.2C800 572 850 572 875 572L900 572L900 601L875 601C850 601 800 601 750 601C700 601 650 601 600 601C550 601 500 601 450 601C400 601 350 601 300 601C250 601 200 601 150 601C100 601 50 601 25 601L0 601Z" fill="#0f172a"></path></svg>