<svg id="visual" viewBox="0 0 900 600" width="900" height="600" xmlns="http://www.w3.org/2000/svg" xmlns:xlink="http://www.w3.org/1999/xlink" version="1.1"><path d="M0 337L25 350C50 363 100 389 150 388.3C200 387.7 250 360.3 300 351.5C350 342.7 400 352.3 450 364C500 375.7 550 389.3 600 388.5C650 387.7 700 372.3 750 367.2C800 362 850 367 875 369.5L900 372L900 601L875 601C850 601 800 601 750 601C700 601 650 601 600 601C550 601 500 601 450 601C400 601 350 601 300 601C250 601 200 601 150 601C100 601 50 601 25 601L0 601Z" fill="#16427b"></path><path d="M0 450L25 448.7C50 447.3 100 444.7 150 440.2C200 435.7 250 429.3 300 426.2C350 423 400 423 450 427.3C500 431.7 550 440.3 600 436.3C650 432.3 700 415.7 750 410.2C800 404.7 850 410.3 875 413.2L900 416L900 601L875 601C850 601 800 601 750 601C700 601 650 601 600 601C550 601 500 601 450 601C400 601 350 601 300 601C250 601 200 601 150 601C100 601 50 601 25 601L0 601Z" fill="#17396a"></path><path d="M0 454L25 457.7C50 461.3 100 468.7 150 473.5C200 478.3 250 480.7 300 472C350 463.3 400 443.7 450 444.3C500 445 550 466 600 465C650 464 700 441 750 441.8C800 442.7 850 467.3 875 479.7L900 492L900 601L875 601C850 601 800 601 750 601C700 601 650 601 600 601C550 601 500 601 450 601C400 601 350 601 300 601C250 601 200 601 150 601C100 601 50 601 25 601L0 601Z" fill="#173059"></path><path d="M0 471L25 468.7C50 466.3 100 461.7 150 466.2C200 470.7 250 484.3 300 484.3C350 484.3 400 470.7 450 466.2C500 461.7 550 466.3 600 469.2C650 472 700 473 750 475.7C800 478.3 850 482.7 875 484.8L900 487L900 601L875 601C850 601 800 601 750 601C700 601 650 601 600 601C550 601 500 601 450 601C400 601 350 601 300 601C250 601 200 601 150 601C100 601 50 601 25 601L0 601Z" fill="#152849"></path><path d="M0 492L25 492C50 492 100 492 150 494.8C200 497.7 250 503.3 300 506.2C350 509 400 509 450 509.2C500 509.3 550 509.7 600 513.5C650 517.3 700 524.7 750 527C800 529.3 850 526.7 875 525.3L900 524L900 601L875 601C850 601 800 601 750 601C700 601 650 601 600 601C550 601 500 601 450 601C400 601 350 601 300 601C250 601 200 601 150 601C100 601 50 601 25 601L0 601Z" fill="#121f39"></path><path d="M0 562L25 565.2C50 568.3 100 574.7 150 577.7C200 580.7 250 580.3 300 575C350 569.7 400 559.3 450 553.7C500 548 550 547 600 548.5C650 550 700 554 750 557C800 560 850 562 875 563L900 564L900 601L875 601C850 601 800 601 750 601C700 601 650 601 600 601C550 601 500 601 450 601C400 601 350 601 300 601C250 601 200 601 150 601C100 601 50 601 25 601L0 601Z" fill="#0f172a"></path></svg>