<svg id="visual" viewBox="0 0 900 600" width="900" height="600" xmlns="http://www.w3.org/2000/svg" xmlns:xlink="http://www.w3.org/1999/xlink" version="1.1"><rect x="0" y="0" width="900" height="600" fill="#001220"></rect><path d="M0 426L21.5 414C43 402 86 378 128.8 368.2C171.7 358.3 214.3 362.7 257.2 377C300 391.3 343 415.7 385.8 419.5C428.7 423.3 471.3 406.7 514.2 393.2C557 379.7 600 369.3 642.8 375.3C685.7 381.3 728.3 403.7 771.2 410.5C814 417.3 857 408.7 878.5 404.3L900 400L900 601L878.5 601C857 601 814 601 771.2 601C728.3 601 685.7 601 642.8 601C600 601 557 601 514.2 601C471.3 601 428.7 601 385.8 601C343 601 300 601 257.2 601C214.3 601 171.7 601 128.8 601C86 601 43 601 21.5 601L0 601Z" fill="#fa7268"></path><path d="M0 421L21.5 425.5C43 430 86 439 128.8 434.8C171.7 430.7 214.3 413.3 257.2 412.3C300 411.3 343 426.7 385.8 438.7C428.7 450.7 471.3 459.3 514.2 457.3C557 455.3 600 442.7 642.8 430.3C685.7 418 728.3 406 771.2 407.3C814 408.7 857 423.3 878.5 430.7L900 438L900 601L878.5 601C857 601 814 601 771.2 601C728.3 601 685.7 601 642.8 601C600 601 557 601 514.2 601C471.3 601 428.7 601 385.8 601C343 601 300 601 257.2 601C214.3 601 171.7 601 128.8 601C86 601 43 601 21.5 601L0 601Z" fill="#ef5f67"></path><path d="M0 465L21.5 466.3C43 467.7 86 470.3 128.8 467C171.7 463.7 214.3 454.3 257.2 451.8C300 449.3 343 453.7 385.8 458.7C428.7 463.7 471.3 469.3 514.2 476.5C557 483.7 600 492.3 642.8 489.3C685.7 486.3 728.3 471.7 771.2 465C814 458.3 857 459.7 878.5 460.3L900 461L900 601L878.5 601C857 601 814 601 771.2 601C728.3 601 685.7 601 642.8 601C600 601 557 601 514.2 601C471.3 601 428.7 601 385.8 601C343 601 300 601 257.2 601C214.3 601 171.7 601 128.8 601C86 601 43 601 21.5 601L0 601Z" fill="#e34c67"></path><path d="M0 521L21.5 515.2C43 509.3 86 497.7 128.8 501.2C171.7 504.7 214.3 523.3 257.2 523.3C300 523.3 343 504.7 385.8 500C428.7 495.3 471.3 504.7 514.2 508.2C557 511.7 600 509.3 642.8 506C685.7 502.7 728.3 498.3 771.2 502.7C814 507 857 520 878.5 526.5L900 533L900 601L878.5 601C857 601 814 601 771.2 601C728.3 601 685.7 601 642.8 601C600 601 557 601 514.2 601C471.3 601 428.7 601 385.8 601C343 601 300 601 257.2 601C214.3 601 171.7 601 128.8 601C86 601 43 601 21.5 601L0 601Z" fill="#d53867"></path><path d="M0 559L21.5 555.8C43 552.7 86 546.3 128.8 546.2C171.7 546 214.3 552 257.2 556.2C300 560.3 343 562.7 385.8 562.8C428.7 563 471.3 561 514.2 560.7C557 560.3 600 561.7 642.8 558.5C685.7 555.3 728.3 547.7 771.2 544.8C814 542 857 544 878.5 545L900 546L900 601L878.5 601C857 601 814 601 771.2 601C728.3 601 685.7 601 642.8 601C600 601 557 601 514.2 601C471.3 601 428.7 601 385.8 601C343 601 300 601 257.2 601C214.3 601 171.7 601 128.8 601C86 601 43 601 21.5 601L0 601Z" fill="#c62368"></path></svg>