<svg id="visual" viewBox="0 0 900 600" width="900" height="600" xmlns="http://www.w3.org/2000/svg" xmlns:xlink="http://www.w3.org/1999/xlink" version="1.1"><path d="M0 398L21.5 407C43 416 86 434 128.8 444.3C171.7 454.7 214.3 457.3 257.2 450.2C300 443 343 426 385.8 436.3C428.7 446.7 471.3 484.3 514.2 492.5C557 500.7 600 479.3 642.8 461.8C685.7 444.3 728.3 430.7 771.2 429C814 427.3 857 437.7 878.5 442.8L900 448L900 601L878.5 601C857 601 814 601 771.2 601C728.3 601 685.7 601 642.8 601C600 601 557 601 514.2 601C471.3 601 428.7 601 385.8 601C343 601 300 601 257.2 601C214.3 601 171.7 601 128.8 601C86 601 43 601 21.5 601L0 601Z" fill="#0f172a" stroke-linecap="round" stroke-linejoin="miter"></path></svg>